<svg xmlns="http://www.w3.org/2000/svg" viewBox="0 0 12.96 20.88"><defs><style>.cls-1{fill:#fff}.cls-2{fill:#202447}</style></defs><g id="Calque_2" data-name="Calque 2"><g id="Calque_1-2" data-name="Calque 1"><path class="cls-1" d="M.49 5.31h-.2c0 5.38.14 9.83.2 15.08q6 .16 12 .2c.12-5.33.22-10 0-15.28z"/><path class="cls-2" d="M.49 5h-.2a.3.3 0 0 0-.29.3c0 5 .14 10.05.2 15.08a.3.3 0 0 0 .29.29q6 .16 12 .2a.29.29 0 0 0 .29-.29c.12-5.1.21-10.19 0-15.28a.29.29 0 0 0-.29-.3h-12a.3.3 0 0 0 0 .59h12l-.29-.29c.21 5.09.12 10.18 0 15.28l.29-.29q-6 0-12-.2l.3.29c-.07-5-.21-10-.21-15.08l-.29.3h.2a.3.3 0 0 0 0-.6z"/><path class="cls-1" d="M3.75 5.1l.38-2.73a2.21 2.21 0 0 1 1-1.82 2.84 2.84 0 0 1 2.81.32A3.3 3.3 0 0 1 9.08 3a9.47 9.47 0 0 1 .12 2"/><path class="cls-2" d="M4 5.18c.13-.9.25-1.79.37-2.68A2.14 2.14 0 0 1 5.2.82 2.34 2.34 0 0 1 7.14.76 2.43 2.43 0 0 1 8.56 2.2 6.82 6.82 0 0 1 8.9 5c0 .37.57.37.59 0 .08-1.65-.16-3.84-1.84-4.65a3.21 3.21 0 0 0-2.3-.23A2.11 2.11 0 0 0 4 1.73a15.08 15.08 0 0 0-.23 1.5L3.47 5c-.05.37.51.53.56.16zM.58 15.46c.76-.71 1.32-1.61 2.08-2.33l-.41-.05a19.08 19.08 0 0 0 1.06 1.64c.21.29.53.88.92 1s.84-.51 1.09-.77L7 13.21l-.42-.05c.49.68.9 1.41 1.45 2.05.4.47.83.74 1.27.18.31-.39.6-.81.89-1.21.14-.18.26-.37.41-.55s.24-.32.48 0c.48.66.88 1.37 1.39 2 .21.26.58-.11.37-.37-.54-.67-.94-1.43-1.46-2.11-.3-.38-.62-.56-1-.15s-.43.61-.65.9-.73 1.27-1.04 1.23c-.11 0-.34-.37-.4-.45s-.3-.4-.44-.61c-.26-.39-.52-.79-.79-1.18a.27.27 0 0 0-.41-.05L5.52 14l-.65.65c-.11.11-.37.47-.52.49s-.75-.91-.88-1.14c-.27-.4-.52-.81-.77-1.23a.27.27 0 0 0-.41-.05c-.76.76-1.29 1.66-2.08 2.37-.25.23.13.6.37.37zm-.29 1.26l.2 3.67 12 .2.13-3.65s-8.9.4-12.33-.22z"/></g></g></svg>