<svg enable-background="new 0 0 175 124.8" viewBox="0 0 175 124.8" xmlns="http://www.w3.org/2000/svg"><g fill="#202347"><path d="m120.7 43.3c-.5 1.6-1 3-1.4 4.2s-.8 2.5-1.2 3.6c-.4 1.2-.7 2.4-1 3.6s-.4 2.6-.5 4.1c.9-.1 1.6-.7 2.2-1.9s1-2.3 1.2-3.3c.3-1.4.5-2.9.9-4.3.3-1.5.4-3 .4-4.6 0-.4-.1-.8-.2-1.3 0-.6-.2-.6-.4-.1m16.1 2.3c.9 0 1.3.3 1.2.8s-.1 1.2-.1 2.1c0 .1 0 .4-.1.7 0 .3-.1.8-.3 1.3-.2.8-.4 1.6-.5 2.4-.2 1-.5 2.3-.9 3.8-1.3 5.5-2.7 10.4-4.2 14.6-.8 2.1-1.5 3.8-2.2 5.3s-1.4 2.7-2.1 3.7c-1.8 2.7-4.2 4.1-6.9 4.1-3.1 0-5.8-1.7-8.1-5.2-2-3.2-3.1-7.1-3.1-11.7 0-3.7.3-7.5.8-11.3s1.2-7.2 2-10.2c.3-1.1.6-2.2 1-3.3s.8-2.2 1.4-3.2c.5-1 1.2-1.8 1.8-2.4s1.5-.9 2.4-.9c1.9 0 3.7.8 5.3 2.3.7.8 1.4 1.8 1.8 2.9.5 1.1.7 2.1.7 3 0 1.4-.1 3-.4 4.7s-.6 3.4-1 5.1-.9 3.2-1.4 4.6-1 2.5-1.6 3.4c-.3.6-.8 1.3-1.4 1.9s-1.2 1.2-1.9 1.6c-.6.4-1.2.6-1.8.6s-1.1-.2-1.5-.8c-.1.6-.2 1.3-.1 2.3.1.9.2 1.8.3 2.7s.3 1.7.5 2.5.4 1.4.5 1.7c.5 1.2 1.2 2.1 2.1 2.7s1.5.9 1.8.9c.7 0 1.4-.6 2.3-1.5 1.1-1.1 2.7-3.8 3.6-6.1 1.3-3.5 1.1-2.8 2.5-6.3s2.7-7.3 3.9-11.3c.2-.8.4-1.6.6-2.3.2-.8.4-1.5.6-2.3.4-1.9 1.2-2.9 2.5-2.9"/><path d="m126.7 71.3c1.6-4 4.3-12 4.5-12.8.2-.9.5-2 .9-3.5.9-3.5 1.3-6.3 1.3-8.5 0-.1 0-.5-.1-1s-.3-1.3-.6-2.3c-.7-1.7-1-3.3-1-4.6 0-1.5.1-2.7.4-3.6s.6-1.7 1-2.2.9-.9 1.4-1.1 1-.3 1.5-.3c.3 0 .6.1 1 .2s.8.3 1.2.7.7.9 1 1.6.5 1.6.6 2.6c.1.7 0 2-.2 3.8-.1 1-.2 1.8-.2 2.3v1.2c.1.1.3.4.8.8s1.5.9 3 1.7c3.7 1.9 5.5 4.3 5.5 7.2 0 .1 0 .4-.1.8 0 .4-.1 1-.1 1.8s-.1 1.9-.3 3.2c-.2 1.8-.3 3.5-.5 5.3-.1 1.3-.2 2.5-.4 3.8-.1 1-.2 1.8-.3 2.5-.1.6-.1 1.2-.2 1.6 0 .4-.1.9-.1 1.3 0 1.7.2 2.8.5 3.2s.7.6 1 .6c.2-.2.3-.4.5-.6.2-.3.5-.9.9-1.7s.8-1.9 1.3-3.3c.6-1.8 1.3-3.6 1.9-5.4 2.3-7 3.7-12.4 4.3-16.2.2-1.6.6-2.7 1.2-3.2s1.2-.8 1.7-.8c.3 0 .7.2 1.4.5.6.3 1 1.2 1 2.7 0 2.5-1.4 8.5-4.3 17.9-1.2 3.6-2.2 6.4-3.1 8.6-.9 2.1-1.7 3.8-2.4 4.9s-1.4 1.9-1.9 2.3c-.6.4-1.1.5-1.6.5-2.8 0-5.1-1.6-6.8-4.9-.3-.4-.5-1.1-.8-2.1-.2-1.1-.4-2.9-.6-5.6v-18c0-.1-.1-.5-.4-1s-1-1.2-2.2-2.1c-.4 2.3-4 14.1-5.7 18.5m39.7 9.5c0 .4-.2 1.1-.5 1.8-.3.8-.8 1.5-1.3 2.2s-1.2 1.3-1.9 1.8-1.4.7-2 .7-1.1-.2-1.6-.5c-.5-.4-.7-.9-.7-1.6 0-1.8.6-3.4 1.7-4.7s2.4-2 3.9-2c.4 0 .9.2 1.5.5s.9.9.9 1.8m-142-54c1 .1 1.4.7 1.4 1.6v.8c0 .4-.1.7-.3 1s-.6.6-1.3.9-2.2.6-4.6 1.1c-1.6.4-2.9.6-3.9.6-1 .1-1.9.1-2.7.1l-3.2.2c-.1 1-.3 2.6-.5 4.8-.2 2.7-.5 5.4-.8 8.1-.2 2.2-.4 4.4-.6 6.7-.1 1.7-.3 3.1-.4 4.1-.1.7-.1 1.4-.2 2.1 0 .4-.1.7-.1.9 0 3.4 0 6.2.1 8.3 0 2.1.1 3.6.2 4.3.2 2.3.5 3.8.9 4.5s.6 1.1.8 1.1c.3-.1.5-.4.8-.8s.6-.9 1-1.5.8-1.6 1.4-2.8c.7-1.9 1.5-4.4 2.4-7.4.8-3 1.7-6.4 2.6-10.4.2-.9.4-1.7.6-2.4.2-.6.4-1.2.5-1.7.1-.4.4-.8.7-1.4s.8-.9 1.5-.9c.6 0 1.2.2 1.7.7s.8 1.3.8 2.5c0 1.4-.3 3.4-.9 6.2s-1.6 6.3-3 10.6c-1.8 5.5-3.5 9.6-5.1 12.2-1.7 2.6-3.4 3.9-5.3 3.9-2.6 0-4.7-2.1-6.2-6.2-1.4-3.7-2-8.3-2-13.8 0-1.8.2-5.2.7-10.3.4-5.1 1.1-12.2 2.1-21.3-.6.1-1.2.1-1.7-.1s-.9-.3-1.1-.5c-.1-.1-.3-.2-.5-.4s-.6-.4-1.1-.6c-1-.4-1.5-.8-1.8-1.3-.2-.5-.4-1-.4-1.3 0-.2.1-.6.4-1.1.2-.5 1-.9 2.4-1.2.4-.1.7-.1 1-.2l.8-.1c.3 0 .6-.1 1-.1s.9-.1 1.5-.2c.1-.8.1-1.8.2-2.9s.1-2.5.2-4l-.5-1.8c0-.4 0-.8.1-1 .5-1.1 1.4-1.7 2.6-1.7s3 .8 5.2 2.3c.4.4.6.8.6 1.3v2.8c-.1.8-.3 1.6-.5 2.4s-.4 1.7-.6 2.7h.8c.1 0 .2 0 .3.1.1 0 .2.1.5.1s.9.1 1.8.1 1.6 0 2.1.1c.5 0 1.1.1 1.6.1.6 0 1.3.1 2.2.1.9-.1 2.1-.1 3.8 0"/><path d="m31.9 43.5c-.5 1.4-1 2.8-1.4 4.2-.4 1.2-.8 2.4-1.2 3.6s-.7 2.4-1 3.6-.4 2.6-.5 4.1c.9-.1 1.6-.7 2.2-1.9s1-2.3 1.2-3.3c.3-1.4.5-2.9.8-4.3.3-1.5.5-3 .5-4.6 0-.4-.1-.8-.2-1.3 0-.5-.2-.6-.4-.1m16 2.3c.9 0 1.3.3 1.2.8s-.1 1.2-.1 2.1v.7c0 .3-.1.8-.3 1.3-.2.8-.4 1.6-.5 2.4-.2 1-.5 2.3-.9 3.8-1.3 5.5-2.7 10.4-4.2 14.6-.7 2.1-1.5 3.8-2.2 5.3s-1.4 2.7-2.1 3.7c-1.8 2.7-4.1 4.1-6.9 4.1-3.1 0-5.8-1.7-8.1-5.2-2-3.2-3.1-7.1-3.1-11.7 0-3.7.3-7.5.8-11.3s1.2-7.2 2-10.2c.3-1.1.6-2.2 1-3.3s.8-2.2 1.4-3.2c.5-1 1.2-1.8 1.8-2.4.7-.6 1.5-.9 2.4-.9 1.9 0 3.7.8 5.3 2.3.7.8 1.4 1.8 1.8 2.9.5 1.1.7 2.1.7 3 0 1.4-.1 3-.4 4.7s-.6 3.4-1 5.1c-.4 1.6-.8 3.1-1.4 4.6-.5 1.4-1 2.5-1.6 3.4-.3.6-.8 1.3-1.4 1.9s-1.2 1.1-1.9 1.6c-.6.4-1.2.6-1.8.6s-1.1-.2-1.5-.8c.1.6 0 1.4.1 2.3s.2 1.8.3 2.7.3 1.7.5 2.5.4 1.4.5 1.7c.5 1.2 1.2 2.1 2.1 2.7s1.5.9 1.8.9c.7 0 1.3-.5 2-1.6.8-1.4 1.7-2.7 2.5-4.1 1.2-1.9 2.4-4.7 3.9-8.2 1.4-3.5 2.7-7.3 3.9-11.3.2-.8.4-1.6.6-2.3s.4-1.5.6-2.3c.2-1.9 1-2.9 2.2-2.9"/><path d="m57.6 52.8c.1-1.2.2-2.1.3-2.6s.1-1 .1-1.6c0-1.8-.2-2.8-.7-3.2-.4-.3-.8-.5-1.1-.5h-.5c-.2 0-.6.2-1 .6s-.9 1.2-1.5 2.2-1.2 2.6-1.9 4.8c-1.9 5.8-2.8 11.1-2.8 16 0 1.8 0 3.3.1 4.5s.2 2.1.2 2.8c.1.7.2 1.2.4 1.6.1.3.3.6.4.7.5.3 1-.1 1.5-1.2s1.3-3.2 2.4-6.3h.1c1.4-3.8 2.5-7.7 3.3-11.6.1-.6.1-1.5.2-2.5s.2-2.2.3-3.7zm19.9-7c.3 0 .4.2.4.5 0 .4-.1 1.3-.1 2.8 0 2.7-1.5 8.6-4.4 17.9-1.2 3.6-2.2 6.4-3.1 8.6-.9 2.1-1.7 3.8-2.4 4.9s-1.4 1.8-1.9 2.2c-.6.4-1.1.5-1.6.5-3.3 0-5.6-2.5-6.7-7.6-1.2 2.8-2.2 4.7-3.1 5.8-1.4 2.1-3 3.1-4.8 3.1-.8 0-1.8-.3-2.9-.8s-2.2-1.7-3.1-3.4c-1.4-2.4-2.1-5.6-2.1-9.4 0-3.1.2-6.3.7-9.5s1.3-6.8 2.5-10.8c2.7-9.4 6-14.1 9.8-14.1 1.4 0 2.8.7 4.3 2 .1.1.2.1.3.2 0 .1.1.1.3.2.4-3.6.9-8.2 1.6-13.7.7-6.1 1.5-12.1 2.3-18.2-.1-.6-.1-1.4 0-2.6 0-1 .5-1.8 1.5-2.2l.3-.1h2.3c.9 0 1.5.2 2 .6.4.4.8.9 1.2 1.6.5.8.6 2 .5 3.7h-.1c-.6 3.4-1.2 6.8-1.9 10.3-.6 3.5-1.3 7.2-2.1 11.3-.1.6-.3 2.6-.8 6.2-.6 5.1-1.3 10.2-1.9 15.3-1.2 9.8-1.8 16.1-1.8 19 .1 2.3.2 3.9.5 4.9.2 1 .4 1.6.6 1.9.3-.4.8-1.3 1.5-2.7.6-1.5 1.7-4 3.2-7.6 1.2-2.8 2.3-5.7 3.4-8.6 1-2.7 1.9-5.5 2.8-8.3.1-.3.2-.6.3-1.1.1-.4.3-.9.5-1.3s.5-.8.8-1.1c.2-.3.7-.4 1.2-.4"/><path d="m78.9 38.6c-1.8 0-3.2-.7-4.2-2.1-1.1-1.4-1.6-2.8-1.6-4.2 0-1.2.5-2.4 1.6-3.5 1.3-1.2 2.4-1.8 3.3-1.8 1.6 0 2.9.5 3.8 1.5s1.3 2.4 1.3 4.3c0 1.3-.2 2.3-.5 3.1s-.7 1.4-1.2 1.8-1 .6-1.4.8c-.4.1-.8.1-1.1.1m6.3 39.2c-1.8 4-3.9 6-6.5 6-.9 0-1.9-.2-2.9-.8-1.1-.5-2.1-1.6-3-3.2-.6-1.3-1.1-2.6-1.4-4-.3-1.5-.5-3.1-.5-5 0-1.6.3-5.9.9-12.9.3-3.4.6-6.2.7-8.3s.2-3.5.2-4.2v-1.6c0-.4.1-.6.3-.8.2-.1.6-.2 1.1-.1.8.1 1.5.3 2.3.4 1.9.4 3.1.8 3.6 1.4s.8 1.1.8 1.5c0 .2 0 .5-.2 1-.1.5-.2.9-.4 1.4-.1.5-.2.9-.4 1.4-.1.4-.2.7-.2.9-.1.6-.3 1.6-.6 3.1-.2 1.5-.5 3.1-.9 4.7-.4 2.3-.7 4.4-.9 6.3-.2 2-.3 4-.3 6.1 0 .4 0 .9.1 1.5 0 .6.1 1.3.2 2s.3 1.3.5 1.8.6.8 1 .9c.1-.1.4-.4.8-1s.9-1.8 1.6-3.7c.1-.4.6-1.6 1.4-3.5s1.7-4.6 2.8-8.1c.3-1.1.8-2.5 1.3-4.2.5-1.6 1.1-3.6 1.7-5.9.1-.3.2-.7.3-1.1.1-.5.3-.9.5-1.3s.5-.8.8-1.1.8-.4 1.3-.4c.2 0 .5.2.8.5s.5 1.2.5 2.7c0 .4 0 .8-.1 1.4s-.2 1.5-.5 2.8c-.4 1.6-.7 3.2-1.2 4.8-.7 2.5-1.4 4.9-2.1 7.4s-1.5 5.1-2.3 7.6c-.3 1.6-.7 2.9-1.1 3.6"/><path d="m99.8 71.7c1.6-5.9 2.3-12.2 2.3-18.7 0-3.1-.2-5.1-.5-6.2-.3-1-.5-1.6-.7-1.8-.1.1-.3.2-.5.5s-.5.8-.9 1.5-.8 1.7-1.3 2.9-1 2.8-1.6 4.7c-1.2 3.5-2 6.8-2.6 9.8s-.9 5.9-1 8.4c.7.9 1.5 2.1 2.4 3.6.3.5.5.8.7.9s.3.1.4.1c.3 0 .7-.4 1.2-1.2.8-.7 1.5-2.2 2.1-4.5m.4-32.7c1 0 1.9.2 2.9.5s1.9.9 2.7 1.8 1.4 2.1 1.9 3.6.8 3.5.8 6c0 3.8-.2 7.5-.7 11.1s-1.2 7.1-2.1 10.6c-2.2 8.1-5 12.1-8.4 12.1-2 0-3.8-1.5-5.3-4.5-.6.6-1.3 1-2 1-1 0-2-.6-2.9-1.9-.8-1.3-1.1-2.5-1.1-3.5 0-.5.1-1 .3-1.4-.2-11.5.5-24.4 2.1-38.8.5-4.6 1.1-8.9 1.6-13s1-8.1 1.5-12c.1-1.6.2-2.8.2-3.3v-1l-.2-.6.3-.5c.2-.4.6-.8 1.1-1.2s1.3-.6 2.3-.6h.8c1.2 0 2.2.4 2.9 1.1s1.1 1.8 1.1 3.3c0 .3-.1.7-.2 1.3s-.3 1.6-.7 3.1c-.3 1.2-.6 2.4-.8 3.6-.2 1-.4 2-.5 3-.9 4.7-1.7 9.5-2.3 14.2-.6 3.8-1.1 7.6-1.5 11.4.4-.8.9-1.6 1.4-2.5 1.2-1.9 2.9-2.9 4.8-2.9"/></g><path d="m137.1 119.6 8.4-16.4m8.4 16.4-8.4-16.4m-8.4 16.4-8.4-16.4m-8.4 16.4 8.4-16.4m-25.2 16.4 8.4-16.4m8.4 16.4-8.4-16.4m-8.4 16.4-8.4-16.4m-8.4 16.4 8.4-16.4m-25.3 16.4 8.4-16.4m8.5 16.4-8.4-16.4m-8.5 16.4-8.4-16.4m-8.4 16.4 8.4-16.4m-8.4 16.4-8.4-16.4m-25.2 16.4 8.4-16.4 8.4 16.4 8.4-16.4" style="fill:none;stroke:#202347;stroke-width:1.073;stroke-linecap:round;stroke-linejoin:round;stroke-miterlimit:10"/></svg>