<svg viewBox="0 0 309.3 254.7" xmlns="http://www.w3.org/2000/svg"><path d="M25.64 47.24s-9.1 43.72-12.48 62S3.32 156.51 2.93 167s-1.58 17 5.27 23.18 35.19 19.91 50.89 24.88 32.29 10.94 57.05 17.15c0 0 9.32 13.94 21.7 18.7s40.73 3.57 49.49 2.22 12.89-.16 20-11.85 9.16-15.62 9.16-15.62 14.76-4.75 40.35-17.31 46.61-23.66 48.48-26.8 4-7.8 2.44-15.51-8-49.67-10.07-59.43-7.72-35.83-14-52.54a70.87 70.87 0 0 0 12.87-15.22c6.05-9.58 3-19.36 0-22.21S288 7.71 281.21 9 268 19.15 268 19.15s-12.57-4.86-39.77-5.24-41.64-.47-67.67-.43-81-1.57-97.94-.83-16.72-.37-18.14-1.19S39 4.88 34.12 3.38s-7.74-1.15-15.75 6.19-10.25 12.24-9 16.28 1.33 8.21 16.27 21.39z" fill="#fff"/><g fill="none" stroke="#1f2446"><path d="M199.08 107.87c.81 1.45 2.95 8.83 4.82 16.2 3.27 12.9 6.31 25.9 9.77 38.78 3.27 12.22 7.89 24 9.18 36.83.75 7.44-2.91 17.27-6.37 23.83l-.19.33-2.29 3.94a103.46 103.46 0 0 1-12.83 19.28 12.39 12.39 0 0 1-7.74 4.36 105.55 105.55 0 0 1-19.43 1.49 32.66 32.66 0 0 0-3.85.06c-3 .33-15.26-.19-18.27 0" stroke-linecap="round" stroke-miterlimit="10" stroke-width="3.23"/><path d="M306.26 166.37c.71 9.15.93 8.28 0 12.81-.68 3.17-5 6.14-7.7 7.66-11.29 6.37-22.51 12.81-34.44 18-15.17 6.66-24.26 9.86-34.38 14.45l-12.68 4.95" stroke-linecap="round" stroke-linejoin="bevel" stroke-width="4.85"/><path d="M27.33 45.65C23 41.22 17.53 37.47 14 32.13s-4.76-10-.71-15.62c4.52-6.31 9.08-12 17.46-13.71 4.27-.88 7.15-.33 9.73 2.88 3.11 3.81 6.11 6.3 12 6.2 8-.12 16 .2 24.06.42 14.1.36 28.2.88 42.3 1.11 14.62.25 76.16.61 90.81 1.13m0 0c13-.46 24.32.74 37.39 1.84a99 99 0 0 1 16.59 3.2 13.53 13.53 0 0 1 4.43 1.72c3-2.43 5-5.6 7.89-7.93 3.46-2.75 7-3.39 10.93-1.84a23.85 23.85 0 0 1 10.45 7c2.52 3.14 2.68 7.12 2.68 10.84a20.41 20.41 0 0 1-5.73 14.78c-3 3-5.78 6.4-9.05 9.18a2.71 2.71 0 0 0-1 3.2c4.56 12.1 14.81 48.54 21.93 109.86" stroke-linecap="round" stroke-miterlimit="10" stroke-width="4.85"/><path d="M199.08 107.87c-2.13-3.43-4-7.21-7.5-9.54-4.27-2.88-9-3-13.65-3.85-12.58-2.17-25.12-.84-37.67-.26-4.43.19-7.63 2.52-10.58 6.08-7.31 8.89-9.34 19.79-12.29 30.34-2.78 10-5.46 19.92-8.18 29.88s-5.95 19.82-7.95 29.94a29 29 0 0 0 1.68 17 131.66 131.66 0 0 0 11.22 21.86c1.1 1.71 2.3 3.36 3.53 4.91 2.94 3.37 8.63 9.45 11.86 11.55 1 1 3.21 1.91 4.89 2.78 5.62 3 11.31 4.75 17.46 4.4" stroke-miterlimit="10" stroke-width="3.23"/><path d="M162.73 238.1c10.8 0 10.51 1.36 13.91-1.13 7.05-5.14 13.45-13.26 19.21-19.34 2.17-2.3 6.69-6.86 6.37-10.9-.58-7.41.52-11-.1-18.6-.42-5.2-1.29-6-6.66-6.66-9.93-1.23-19.89-2.46-29.88-2.94-14.55-.74-6.7-1.1-22.9-.1-4.1.26-8.24-.32-12.45.62-3.26.74-4.53 2.39-5 5.24a135.14 135.14 0 0 0-2 24c.06 2.82 1.61 4.66 3.55 6.21 8.35 6.67 16.79 13.23 25.2 19.8 1.47 1.15 3.15 3.8 10.75 3.8zM27.33 45.65c-1.68 6.59-3.62 13.16-5 19.82-1.46 7.28-3.27 14.46-4.63 21.73m0 0C15.91 93 6.05 146.55 4.92 152.4a114.5 114.5 0 0 0-2.49 21.31c-.07 7.41 2.26 12.65 9 16.69 14.06 8.44 33.05 17.69 42.75 21.25 18.89 6.85 48.51 16.17 59 18.36" stroke-linecap="round" stroke-miterlimit="10" stroke-width="4.85"/></g><path d="M217.51 97c2.85 1.78 3.33 5 3.27 8.09a5.81 5.81 0 0 1-5.34 6.11c-4.14.58-7.24-1-9.64-5.14-2.58 3.17-4.81 5.79-3.45 10.57l-2-7c.91-1.26 4.4-4.85 4.5-6.2.68-6.92 6.92-10 12.64-6.41m-91.43 7.48l-1 1.48c-.68-.71-3.24-2.71-4.66-3-.1 3-2.52 4.79-4.69 5.47-3 .94-5.95 1.13-8.73-.55-2.59-1.62-3-4.88-2.62-7.63 1.39-9.9 16.13-7.09 16.13-.59 0 2.56 2.3 1.91 5.54 4.86" fill="#1f2446"/></svg>